<svg width="50" height="50" viewBox="0 0 70 70" fill="none" xmlns="http://www.w3.org/2000/svg">
<path d="M23.31 70C29.75 70 35 64.75 35 58.31V46.69H23.31C16.87 46.69 11.62 51.94 11.62 58.38C11.62 64.82 16.87 70 23.31 70Z" fill="#FFEDE6" fill-opacity="0.8"/>
<path d="M11.69 35C11.69 28.56 16.94 23.31 23.38 23.31H35V46.62H23.31C16.87 46.69 11.69 41.44 11.69 35Z" fill="#FFEDE6" fill-opacity="0.7"/>
<path d="M11.69 11.69C11.69 5.25 16.87 0 23.31 0H35V23.31H23.31C16.87 23.31 11.69 18.13 11.69 11.69Z" fill="#FFEDE6" fill-opacity="0.6"/>
<path d="M35 0H46.69C53.13 0 58.38 5.25 58.38 11.69C58.38 18.13 53.13 23.38 46.69 23.38H35V0Z" fill="#FFEDE6"/>
<path d="M58.31 35C58.31 41.44 53.06 46.69 46.62 46.69C40.18 46.69 35 41.44 35 35C35 28.56 40.25 23.31 46.69 23.31C53.13 23.31 58.31 28.56 58.31 35Z" fill="#FFEDE6" fill-opacity="0.85"/>
</svg>
