<svg width="70" height="70" viewBox="0 0 70 70" fill="none" xmlns="http://www.w3.org/2000/svg">
<path d="M62.93 34.44C62.93 30.87 59.99 27.93 56.42 27.93C56.21 27.93 55.93 27.93 55.72 28L64.68 1.60999H26.6L35.56 28C35.42 28 35.28 28 35.14 28C31.57 28 28.63 30.94 28.63 34.51C28.63 37.45 30.52 39.9 33.18 40.74C31.78 43.12 30.03 45.29 28.07 47.18C25.34 49.7 22.26 51.66 18.97 52.85C14.98 50.82 13.09 46.27 14.84 42.28C15.05 41.86 15.26 41.37 15.4 40.95C18.27 40.25 20.44 37.66 20.44 34.58C20.44 31.01 17.5 28.07 13.93 28.07C10.36 28.07 7.41999 31.01 7.41999 34.58C7.41999 36.82 8.53999 38.71 10.22 39.9C8.53999 43.54 6.15999 47.39 5.38999 51.8C4.47999 57.12 5.38999 62.79 10.01 66.01C20.79 73.43 32.41 61.39 44.73 58.38C49.21 57.26 54.11 57.47 58.03 55.16C60.97 53.48 62.93 50.61 63.49 47.46C64.05 44.31 63.21 41.16 61.39 38.64C62.37 37.45 62.93 35.98 62.93 34.44Z" fill="#3C6679"/>
<path d="M61.88 47.18C61.39 49.91 59.71 52.36 57.19 53.83C54.88 55.16 52.08 55.58 49.14 56C47.53 56.21 45.92 56.49 44.31 56.84C40.11 57.89 35.98 59.92 32.06 61.88C24.22 65.8 17.36 69.16 10.92 64.68C6.22999 61.39 6.43999 55.37 6.99999 52.08C7.48999 49 8.88999 46.2 10.22 43.47C10.43 42.98 10.64 42.56 10.92 42.07C11.62 42.35 12.32 42.49 13.02 42.63C11.69 47.11 13.79 51.94 18.27 54.25L18.9 54.53L19.53 54.32C23.1 53.06 26.32 51.03 29.19 48.3C31.08 46.55 32.69 44.59 34.02 42.49C34.44 42.56 34.86 42.56 35.21 42.56C39.34 42.56 42.7 39.48 43.26 35.49C44.94 35.42 46.76 35.42 48.44 35.49C49 39.48 52.36 42.56 56.49 42.56C58.24 42.56 59.78 42 61.11 41.09C61.95 42.98 62.3 45.08 61.88 47.18ZM13.86 29.61C16.59 29.61 18.76 31.85 18.76 34.51C18.76 35.49 18.48 36.4 17.99 37.17C17.15 38.43 15.75 39.34 14.21 39.41C14.07 39.41 14 39.41 13.86 39.41C13.23 39.41 12.67 39.27 12.11 39.13C11.06 38.71 10.15 37.94 9.51999 36.96C9.09999 36.19 8.88999 35.35 8.88999 34.51C8.95999 31.78 11.13 29.61 13.86 29.61ZM30.24 34.44C30.24 31.99 32.06 29.89 34.44 29.54C34.65 29.47 34.93 29.47 35.14 29.47C36.75 29.47 38.15 30.24 39.06 31.36C39.27 31.64 39.48 31.99 39.62 32.27C39.9 32.9 40.11 33.6 40.11 34.37C40.11 34.79 40.04 35.14 39.97 35.49C39.48 37.52 37.8 39.06 35.7 39.27C35.56 39.27 35.35 39.27 35.21 39.27C34.23 39.27 33.32 38.99 32.55 38.5C31.15 37.73 30.24 36.19 30.24 34.44ZM50.82 28.63C49.77 29.68 49 30.94 48.58 32.41C46.69 32.34 44.87 32.34 42.98 32.41C42.56 30.87 41.72 29.47 40.53 28.49L45.64 18.2L50.82 28.63ZM28.84 3.15H62.44L54.53 26.6C54.18 26.67 53.83 26.81 53.55 26.88L45.64 10.92L37.8 26.81C37.45 26.67 37.1 26.6 36.75 26.53L28.84 3.15ZM61.32 34.44C61.32 34.93 61.25 35.42 61.11 35.84C60.76 36.89 60.13 37.8 59.22 38.43C58.38 38.99 57.4 39.34 56.42 39.34C54.18 39.34 52.22 37.8 51.66 35.7C51.52 35.28 51.52 34.86 51.52 34.44C51.52 33.74 51.66 33.11 51.87 32.55C52.01 32.27 52.15 31.99 52.36 31.71C53.27 30.38 54.74 29.54 56.42 29.54C56.56 29.54 56.7 29.54 56.91 29.54C59.36 29.82 61.32 31.92 61.32 34.44ZM64.54 34.44C64.54 30.45 61.67 27.16 57.96 26.46L66.85 0H24.43L33.46 26.53C29.82 27.37 27.09 30.59 27.09 34.44C27.09 37.31 28.63 39.9 30.94 41.3C29.82 42.98 28.49 44.52 27.02 45.92C24.64 48.16 21.98 49.84 19.11 50.96C16.24 49.14 14.98 45.71 16.24 42.77L16.31 42.56L16.52 42.14C19.67 41.02 21.98 38.01 21.98 34.51C21.98 30.03 18.34 26.39 13.86 26.39C9.37999 26.39 5.73999 30.03 5.73999 34.51C5.73999 36.75 6.64999 38.78 8.18999 40.25C7.90999 40.81 7.62999 41.44 7.34999 42C6.01999 44.8 4.40999 47.95 3.84999 51.52C2.65999 58.52 4.54999 64.12 9.09999 67.27C11.9 69.16 14.7 69.93 17.5 69.93C22.82 69.93 28.21 67.27 33.53 64.61C37.31 62.72 41.23 60.76 45.15 59.85C46.62 59.5 48.09 59.29 49.63 59.08C52.78 58.66 56 58.17 58.8 56.49C62.09 54.6 64.4 51.38 65.03 47.67C65.59 44.52 64.89 41.3 63.28 38.64C64.12 37.45 64.54 35.98 64.54 34.44Z" fill="#FFEDE6"/>
</svg>
