<svg width="80" height="60" viewBox="0 0 80 60" fill="none" xmlns="http://www.w3.org/2000/svg">
<path d="M68.934 34.4044C66.1317 34.4044 63.7298 35.125 61.6481 36.0858C60.9276 34.6446 60.1269 33.2835 60.0469 32.3228C59.8867 31.2019 59.7266 30.4813 59.8867 29.2003C60.0469 27.8392 60.8475 25.9177 60.8475 25.7575C60.8475 25.5974 60.6874 24.9569 59.0861 24.8768C57.4848 24.8768 56.1237 25.1971 55.9636 25.5974C55.8035 25.9977 55.4832 26.9585 55.3231 27.9993C55.0829 29.4405 52.1205 34.6446 50.4392 37.4469C49.8787 36.406 49.3984 35.4453 49.3183 34.7247C49.1582 33.6038 48.998 32.8832 49.1582 31.6022C49.3183 30.3212 50.1189 28.3196 50.1189 28.1594C50.1189 27.9993 49.9588 27.3588 48.3575 27.2787C46.7562 27.2787 45.3952 27.599 45.235 27.9993C45.0749 28.3996 44.9148 29.4405 44.5945 30.4012C44.2743 31.362 40.3511 40.089 39.3103 42.3308C38.7499 43.4517 38.3495 44.4124 38.0293 45.0529C38.0293 45.0529 38.0293 45.133 37.9492 45.133C37.709 45.6934 37.5489 45.9336 37.5489 45.9336C37.3087 46.334 37.0685 46.6542 36.9884 46.6542C36.9084 46.6542 36.7483 45.6134 36.9884 44.1722C37.5489 41.1298 38.99 36.406 38.91 36.2459C38.91 36.1658 39.1502 35.3652 38.0293 34.8848C36.9084 34.4845 36.5081 35.125 36.3479 35.125C36.2679 35.125 36.1878 35.3652 36.1878 35.3652C36.1878 35.3652 37.4688 30.081 33.7859 30.081C31.464 30.081 28.2615 32.643 26.7403 34.8848C25.7795 35.4453 23.6178 36.5662 21.376 37.8472C20.4953 38.3276 19.6146 38.8079 18.8139 39.2883C18.7339 39.2083 18.7339 39.1282 18.6538 39.1282C13.93 34.4845 5.68345 31.1218 6.0037 24.7167C6.16383 22.3148 6.96447 16.2299 21.8564 8.78397C34.1862 2.69911 43.954 4.38046 45.6354 8.14346C48.0373 13.4277 40.3511 23.3556 27.701 24.7968C22.8171 25.3572 20.3351 23.4357 19.6946 22.7952C19.0541 22.0746 18.894 21.9945 18.6538 22.1546C18.2535 22.3948 18.4937 23.0354 18.6538 23.4357C19.0541 24.3964 20.5753 26.1578 23.2174 27.0385C25.5393 27.7591 31.2238 28.2395 38.1093 25.5974C45.7955 22.635 51.8803 14.3084 50.0389 7.34282C48.2775 0.297194 36.5881 -2.02466 25.5393 1.89847C18.9741 4.22033 11.8484 7.90327 6.72428 12.7071C0.639417 18.3116 -0.32135 23.2755 0.07897 25.3572C1.52012 32.7231 11.6882 37.5269 15.6914 41.0497C15.4512 41.1298 15.2911 41.2899 15.131 41.37C13.1294 42.4108 5.36319 46.414 3.44166 50.7375C1.27993 55.6214 3.76191 59.0641 5.44325 59.5445C10.6474 60.9857 16.0117 58.4236 18.894 54.1002C21.7763 49.7767 21.456 44.2523 20.095 41.6902C20.095 41.6902 20.095 41.6102 20.0149 41.6102C20.5753 41.2899 21.0557 40.9697 21.6162 40.6494C22.657 40.0089 23.6978 39.4485 24.5785 38.9681C24.0982 40.3292 23.6978 41.9304 23.5377 44.2523C23.2975 46.9745 24.4184 50.5773 25.9396 51.9384C26.5801 52.5789 27.3808 52.5789 27.8612 52.5789C29.6226 52.5789 30.3431 51.1378 31.2238 49.4565C32.2647 47.3748 33.2254 44.9729 33.2254 44.9729C33.2254 44.9729 32.0245 51.4581 35.227 51.4581C36.428 51.4581 37.5489 49.9368 38.1093 49.1362C38.1093 49.1362 38.1093 49.0561 38.1894 48.9761C38.2695 48.8159 38.3495 48.6558 38.3495 48.6558C38.8299 47.8552 39.8707 46.0137 41.472 42.8912C43.4736 38.888 45.3952 33.924 45.3952 33.924C45.3952 33.924 45.5553 35.125 46.1958 37.1266C46.5161 38.3276 47.3167 39.6086 47.8771 40.8896C47.3968 41.5301 47.1566 41.9304 47.1566 41.9304C46.7562 42.4108 46.3559 42.9713 45.8755 43.5317C44.2743 45.4533 42.3527 47.615 42.1125 48.2555C41.7923 48.9761 41.8723 49.5365 42.4328 50.0169C42.8331 50.3372 43.6338 50.4172 44.3543 50.3372C45.7955 50.2571 46.8363 49.8568 47.3167 49.6966C48.1173 49.4564 48.998 48.9761 49.8787 48.3356C51.48 47.2147 52.3607 45.5333 52.2807 43.3716C52.2006 42.1706 51.8803 40.9697 51.3199 39.8488C51.48 39.6086 51.5601 39.4485 51.7202 39.2083C54.2022 35.6054 56.1237 31.6022 56.1237 31.6022C56.1237 31.6022 56.2839 32.8032 56.9244 34.8047C57.2446 35.8456 57.8051 36.9665 58.3655 38.0073C56.0437 39.9288 54.6025 42.0906 54.1221 43.5317C53.1614 46.1738 53.8819 47.3748 55.243 47.695C55.8835 47.8552 56.7642 47.5349 57.4047 47.2947C58.2054 47.0545 59.1662 46.5741 60.1269 45.9336C61.7282 44.8127 63.1694 43.1314 63.0893 40.9697C63.0092 40.0089 62.769 38.9681 62.4488 38.0073C64.4504 37.2067 66.9324 36.7263 70.215 37.1266C77.1805 37.9272 78.5416 42.2507 78.3014 44.0922C78.0612 45.9336 76.54 46.8944 76.0596 47.2147C75.5793 47.5349 75.4191 47.615 75.4992 47.8552C75.5793 48.1754 75.8195 48.1754 76.2198 48.0954C76.7802 48.0153 79.9027 46.6542 79.9828 43.2915C80.303 39.0481 76.1397 34.4044 68.934 34.4044ZM15.2111 52.4989C12.8892 54.9809 9.68664 55.9416 8.32555 55.141C6.80434 54.2603 7.44485 50.5773 10.2471 47.9352C12.0085 46.334 14.1702 44.8127 15.6914 43.852C16.0117 43.6118 16.4921 43.3716 17.1326 42.9713C17.2127 42.8912 17.2927 42.8912 17.2927 42.8912C17.3728 42.8111 17.5329 42.7311 17.613 42.651C18.6538 46.4941 17.693 49.8568 15.2111 52.4989ZM32.0245 41.0497C31.2238 42.9713 29.5425 48.0153 28.5017 47.7751C27.621 47.5349 27.0605 43.7719 28.3415 40.0089C28.9821 38.0874 30.2631 35.8456 31.0637 34.9649C32.3447 33.5237 33.7058 33.1234 34.0261 33.6839C34.5065 34.4044 32.5849 39.8488 32.0245 41.0497ZM45.9556 47.695C45.6354 47.8552 45.3151 48.0153 45.155 47.9352C45.0749 47.8552 45.3151 47.615 45.3151 47.615C45.3151 47.615 47.0765 45.7735 47.717 44.8928C48.1173 44.4124 48.5977 43.7719 49.0781 43.1314C49.0781 43.2115 49.0781 43.2915 49.0781 43.2915C49.0781 45.6134 46.9164 47.1346 45.9556 47.695ZM56.6041 45.2931C56.3639 45.133 56.3639 44.5725 57.2446 42.7311C57.5649 42.0105 58.3655 40.8095 59.6465 39.6887C59.8067 40.169 59.8867 40.6494 59.8867 41.0497C59.8867 43.7719 57.8851 44.8127 56.6041 45.2931Z" fill="#FFEDE6"/>
</svg>
