<svg width="120" height="25" viewBox="0 0 120 25" fill="none" xmlns="http://www.w3.org/2000/svg">
<mask id="mask0_108_433" style="mask-type:luminance" maskUnits="userSpaceOnUse" x="0" y="0" width="120" height="25">
<path d="M120 0H0V24.36H120V0Z" fill="white"/>
</mask>
<g mask="url(#mask0_108_433)">
<path d="M79.8 0H100.68V3.84H92.4V24.12H88.2V3.84H79.68V0H79.8Z" fill="#FFEDE6"/>
<path d="M45.36 0V3.84H28.56V10.08H42V13.92H28.68V20.28H45.48V24.12H24.48V3.84V0H45.36Z" fill="#FFEDE6"/>
<path d="M55.8 0H50.4L69.84 24.12H75.24L65.52 12L75.24 0H69.84L62.88 8.64L55.8 0Z" fill="#FFEDE6"/>
<path d="M61.44 17.28L58.68 13.92L50.4 24.24H55.8L61.44 17.28Z" fill="#FFEDE6"/>
<path fill-rule="evenodd" clip-rule="evenodd" d="M24.6 24.12L5.16 0H0V24.12H4.2V5.16L19.44 24.12H24.6Z" fill="#FFEDE6"/>
<path d="M101.64 24C101.28 24 101.04 23.88 100.92 23.64C100.8 23.4 100.56 23.16 100.56 22.92C100.56 22.68 100.68 22.32 100.92 22.2C101.16 22.08 101.4 21.84 101.64 21.84C101.88 21.84 102.24 21.96 102.36 22.2C102.6 22.44 102.72 22.68 102.72 22.92C102.72 23.16 102.72 23.28 102.6 23.52C102.48 23.64 102.36 23.76 102.24 23.88C102 24 101.76 24 101.64 24Z" fill="#FFEDE6"/>
<path d="M108.72 13.8H110.52V20.88C110.52 21.48 110.4 22.08 110.16 22.56C109.92 23.04 109.44 23.4 108.96 23.64C108.48 23.88 107.88 24 107.28 24C106.68 24 106.2 23.88 105.72 23.64C105.24 23.4 104.88 23.16 104.64 22.68C104.4 22.32 104.28 21.72 104.28 21.12H106.08C106.08 21.36 106.2 21.6 106.32 21.84C106.44 22.08 106.56 22.2 106.8 22.32C107.04 22.44 107.28 22.44 107.52 22.44C107.76 22.44 108.12 22.32 108.24 22.2C108.48 22.08 108.6 21.84 108.72 21.6C108.84 21.36 108.84 21.12 108.84 20.76V13.8H108.72Z" fill="#FFEDE6"/>
<path d="M118.08 16.56C118.08 16.08 117.84 15.84 117.48 15.6C117.12 15.36 116.64 15.24 116.16 15.24C115.8 15.24 115.44 15.24 115.2 15.36C114.96 15.48 114.72 15.6 114.6 15.84C114.48 16.08 114.36 16.32 114.36 16.56C114.36 16.8 114.36 16.92 114.48 17.16C114.6 17.28 114.72 17.4 114.84 17.52C114.96 17.64 115.2 17.76 115.44 17.76C115.68 17.88 115.8 17.88 116.04 18L117 18.24C117.36 18.36 117.72 18.48 118.08 18.6C118.44 18.72 118.8 18.96 119.04 19.2C119.28 19.44 119.52 19.68 119.76 20.04C119.88 20.4 120 20.76 120 21.24C120 21.84 119.88 22.32 119.52 22.8C119.16 23.28 118.8 23.64 118.2 23.88C117.6 24.12 116.88 24.24 116.16 24.24C115.32 24.24 114.72 24.12 114.12 23.88C113.52 23.64 113.04 23.28 112.8 22.8C112.44 22.32 112.32 21.72 112.32 21.12H114C114 21.48 114.12 21.72 114.36 21.96C114.6 22.2 114.84 22.32 115.08 22.44C115.44 22.56 115.8 22.56 116.16 22.56C116.52 22.56 116.88 22.44 117.24 22.32C117.6 22.2 117.84 22.08 117.96 21.84C118.08 21.6 118.2 21.36 118.2 21.12C118.2 20.88 118.08 20.64 117.96 20.52C117.84 20.4 117.6 20.16 117.36 20.04C117.12 19.92 116.76 19.8 116.4 19.68L115.2 19.44C114.36 19.2 113.64 18.96 113.16 18.48C112.68 18 112.44 17.52 112.44 16.8C112.44 16.2 112.56 15.72 112.92 15.24C113.28 14.76 113.64 14.4 114.24 14.16C114.84 13.92 115.44 13.8 116.16 13.8C116.88 13.8 117.48 13.92 118.08 14.16C118.68 14.4 119.04 14.76 119.4 15.24C119.76 15.72 119.88 16.2 119.88 16.8H118.08V16.56Z" fill="#FFEDE6"/>
</g>
</svg>
