<svg width="70" height="70" viewBox="0 0 70 70" fill="none" xmlns="http://www.w3.org/2000/svg">
<path d="M32.41 0.769973C34.16 -0.210027 36.4 -0.210027 38.15 0.769973C46.9 5.66997 55.58 10.64 64.33 15.54C65.94 16.45 67.06 18.27 67.06 20.16V49.84C67.06 51.8 65.87 53.69 64.12 54.6C55.44 59.5 46.76 64.4 38.01 69.3C36.26 70.28 33.95 70.21 32.2 69.16C29.61 67.62 26.95 66.15 24.36 64.61C23.8 64.26 23.24 64.05 22.82 63.49C23.17 63.07 23.73 63 24.22 62.79C25.34 62.44 26.32 61.88 27.3 61.32C27.58 61.18 27.86 61.18 28.07 61.39C30.31 62.65 32.48 63.98 34.72 65.24C35.21 65.52 35.7 65.17 36.12 64.89C44.8 60.13 53.34 55.37 61.81 50.54C62.16 50.4 62.3 50.05 62.3 49.7C62.3 39.9 62.3 30.1 62.3 20.37C62.37 19.95 62.09 19.6 61.74 19.46C53.06 14.56 44.38 9.65997 35.77 4.82997C35.63 4.75997 35.42 4.68997 35.28 4.68997C35.07 4.68997 34.93 4.75997 34.79 4.82997C26.11 9.72997 17.5 14.63 8.82 19.46C8.4 19.6 8.19 19.95 8.19 20.3C8.19 30.1 8.19 39.9 8.19 49.63C8.19 49.77 8.19 49.98 8.33 50.12C8.4 50.26 8.54 50.4 8.68 50.47C10.99 51.8 13.3 53.06 15.61 54.39C16.94 55.09 18.48 55.51 19.95 54.95C21.21 54.53 22.12 53.2 22.05 51.87C22.05 42.14 22.05 32.41 22.05 22.68C22.05 22.26 22.4 21.91 22.82 21.91C23.94 21.91 25.06 21.91 26.18 21.91C26.67 21.91 26.95 22.33 26.88 22.82C26.88 32.62 26.88 42.42 26.88 52.22C26.88 54.81 25.83 57.68 23.38 58.94C20.44 60.48 16.73 60.13 13.79 58.66C11.27 57.4 8.82 55.86 6.3 54.53C4.69 53.69 3.5 51.8 3.5 49.84V20.16C3.5 18.2 4.62 16.38 6.3 15.47C14.98 10.57 23.73 5.66997 32.41 0.769973Z" fill="#FFEDE6"/>
<path d="M39.97 21.28C43.75 21.07 47.81 21.14 51.24 23.03C53.9 24.43 55.37 27.44 55.37 30.38C55.3 30.8 54.88 31.01 54.53 30.94C53.41 30.94 52.36 30.94 51.24 30.94C50.75 30.94 50.47 30.52 50.47 30.1C50.12 28.7 49.42 27.3 48.09 26.6C46.06 25.55 43.68 25.62 41.51 25.69C39.9 25.76 38.15 25.9 36.82 26.88C35.77 27.58 35.42 29.05 35.84 30.24C36.19 31.08 37.17 31.36 37.94 31.57C42.49 32.76 47.32 32.62 51.8 34.23C53.69 34.86 55.44 36.12 56.14 38.08C56.98 40.67 56.63 43.82 54.74 45.92C53.27 47.67 51.03 48.58 48.86 49.07C45.85 49.7 42.84 49.7 39.9 49.42C37.1 49.07 34.23 48.37 32.13 46.48C30.31 44.87 29.4 42.42 29.47 40.04C29.47 39.62 29.89 39.34 30.31 39.41C31.43 39.41 32.55 39.41 33.6 39.41C34.02 39.41 34.37 39.76 34.37 40.18C34.58 41.51 35.07 42.91 36.26 43.75C38.5 45.22 41.37 45.08 43.89 45.15C46.06 45.08 48.44 45.01 50.19 43.61C51.1 42.77 51.38 41.44 51.1 40.32C50.82 39.34 49.84 38.92 48.93 38.57C44.45 37.17 39.55 37.66 35.07 36.05C33.25 35.42 31.5 34.23 30.8 32.34C29.82 29.68 30.24 26.46 32.34 24.43C34.37 22.33 37.24 21.56 39.97 21.28Z" fill="#FFEDE6"/>
</svg>
