<svg width="70" height="70" viewBox="0 0 70 70" fill="none" xmlns="http://www.w3.org/2000/svg">
<g clip-path="url(#clip0_108_395)">
<path d="M0 0H70V70H0V0Z" fill="#FFEDE6"/>
<path d="M33.6 25.9H36.96V31.71H27.86V57.47L27.65 57.54C27.3 57.61 23.03 57.61 22.05 57.54L21.28 57.47V31.71H12.18V25.9H15.05C16.59 25.9 20.65 25.9 24.01 25.9C27.51 25.9 31.78 25.9 33.6 25.9ZM59.22 54.81C57.89 56.21 56.42 56.98 54.04 57.68C52.99 57.96 52.85 57.96 50.47 57.96C48.16 57.96 47.95 57.96 46.83 57.68C43.89 56.91 41.51 55.44 39.9 53.34C39.41 52.78 38.71 51.52 38.71 51.38C38.71 51.31 38.85 51.24 38.99 51.17C39.13 51.1 39.41 50.89 39.69 50.75C39.9 50.61 40.39 50.33 40.67 50.19C40.95 50.05 41.79 49.56 42.56 49.07C43.33 48.65 43.96 48.23 44.03 48.23C44.1 48.23 44.24 48.37 44.38 48.58C45.01 49.7 46.55 51.1 47.67 51.59C48.37 51.87 49.84 52.22 50.54 52.22C51.17 52.22 52.43 51.94 53.06 51.66C53.76 51.31 54.11 51.03 54.53 50.4C54.81 49.98 54.88 49.84 54.81 49C54.81 48.23 54.74 48.02 54.53 47.6C53.9 46.62 53.06 46.06 49.7 44.59C46.2 43.05 44.66 42.14 43.4 40.88C42.49 39.97 42.28 39.69 41.65 38.57C40.88 37.1 40.81 36.61 40.81 34.44C40.81 32.9 40.81 32.41 41.02 31.85C41.23 31.08 42 29.54 42.35 29.19C43.05 28.35 43.33 28.14 43.82 27.72C45.29 26.46 47.6 25.69 49.84 25.62C50.12 25.62 50.89 25.69 51.73 25.69C53.97 25.9 55.51 26.39 56.98 27.58C58.1 28.42 59.78 30.52 59.57 30.8C59.43 30.94 55.09 33.88 54.81 33.95C54.67 34.02 54.53 33.95 54.25 33.67C52.78 31.92 52.15 31.5 50.75 31.43C49.7 31.36 49.21 31.5 48.51 31.92C47.81 32.41 47.46 33.11 47.46 34.16C47.46 35.63 48.02 36.33 50.12 37.38C51.45 38.08 52.64 38.57 52.71 38.57C52.85 38.57 55.65 39.97 56.35 40.39C59.78 42.42 61.18 44.45 61.53 48.02C61.6 50.61 60.9 53.06 59.22 54.81Z" fill="#3C6679"/>
</g>
<defs>
<clipPath id="clip0_108_395">
<rect width="70" height="70" fill="white"/>
</clipPath>
</defs>
</svg>
