<svg width="70" height="70" viewBox="0 0 70 70" fill="none" xmlns="http://www.w3.org/2000/svg">
<g clip-path="url(#clip0_108_399)">
<path d="M34.72 0C17.01 0 18.06 7.7 18.06 7.7V15.68H35V18.06H11.34C11.34 18.06 0 16.8 0 34.72C0 52.64 9.94 52.01 9.94 52.01H15.89V43.68C15.89 43.68 15.54 33.74 25.69 33.74H42.49C42.49 33.74 51.94 33.88 51.94 24.64V9.31C51.87 9.31 53.34 0 34.72 0ZM25.41 5.39C25.83 5.39 26.18 5.46 26.6 5.6C26.95 5.74 27.3 5.95 27.58 6.23C27.86 6.51 28.07 6.86 28.21 7.21C28.35 7.56 28.42 7.98 28.42 8.4C28.42 8.82 28.35 9.17 28.21 9.59C28.07 9.94 27.86 10.29 27.58 10.57C27.3 10.85 26.95 11.06 26.6 11.2C26.25 11.34 25.83 11.41 25.41 11.41C24.99 11.41 24.64 11.34 24.22 11.2C23.8 11.06 23.52 10.85 23.24 10.57C22.96 10.29 22.75 9.94 22.61 9.59C22.47 9.24 22.4 8.82 22.4 8.4C22.4 7.98 22.47 7.63 22.61 7.21C22.75 6.86 22.96 6.51 23.24 6.23C23.52 5.95 23.87 5.74 24.22 5.6C24.57 5.46 24.99 5.39 25.41 5.39Z" fill="#942206"/>
<path d="M35.28 69.65C53.06 69.65 51.94 61.95 51.94 61.95V53.97H34.93V51.59H58.59C58.59 51.59 69.93 52.85 69.93 34.93C69.93 17.01 59.99 17.64 59.99 17.64H54.04V25.9C54.04 25.9 54.39 35.84 44.24 35.84H27.44C27.44 35.84 17.99 35.7 17.99 44.94V60.27C18.13 60.34 16.66 69.65 35.28 69.65ZM44.59 64.26C44.17 64.26 43.82 64.19 43.4 64.05C43.05 63.91 42.7 63.7 42.42 63.42C42.14 63.14 41.93 62.79 41.79 62.44C41.65 62.09 41.58 61.67 41.58 61.25C41.58 60.83 41.65 60.48 41.79 60.06C41.93 59.71 42.14 59.36 42.42 59.08C42.7 58.8 43.05 58.59 43.4 58.45C43.75 58.31 44.17 58.24 44.59 58.24C45.01 58.24 45.36 58.31 45.78 58.45C46.13 58.59 46.48 58.8 46.76 59.08C47.04 59.36 47.25 59.71 47.39 60.06C47.53 60.41 47.6 60.83 47.6 61.25C47.6 61.67 47.53 62.02 47.39 62.44C47.25 62.79 47.04 63.14 46.76 63.42C46.48 63.7 46.13 63.91 45.78 64.05C45.43 64.19 45.01 64.26 44.59 64.26Z" fill="#FFEDE6"/>
</g>
<defs>
<clipPath id="clip0_108_399">
<rect width="70" height="70" fill="white"/>
</clipPath>
</defs>
</svg>
