<svg width="193" height="254" viewBox="0 0 193 254" fill="none" xmlns="http://www.w3.org/2000/svg">
<path d="M10.3301 89.07C23.8301 76.09 36.3601 70.16 45.5001 67.16C55.0501 64.02 61.6101 63.84 78.0701 59.11C88.6201 56.08 97.0901 52.94 102.68 50.73C100.53 46.94 97.0301 41.08 92.1101 34.3C83.8401 22.9 78.7601 18.78 79.9801 14.34C80.5701 12.2 83.0201 8.52001 95.2401 6.51001C111.25 21.32 125.36 35.04 137.5 47.21C155.97 65.72 163.37 74.12 168.02 87.48C171.01 96.07 171.5 103 172.47 116.85C173.93 137.69 172.87 141.65 172.31 166.28C172.15 173.48 172.78 184.36 177.02 196.69C180.29 206.2 184.65 213.45 187.98 218.21" stroke="#942206" stroke-width="12" stroke-miterlimit="10"/>
<path d="M12.7 86.85C11.58 87.77 7.76996 91.15 6.80996 96.89C5.79996 102.97 8.69996 107.53 9.64996 109.02C14.86 117.22 24.57 118.28 25.99 118.41C32.43 118.83 42.27 119.27 54.36 119C68.28 118.68 68.28 117.8 73.14 118.61C89.83 121.38 92.31 132.2 105.97 131.86C108.41 131.8 115.45 131.28 121.86 126.24C126.77 122.38 129.07 117.62 130.08 115.09" stroke="#942206" stroke-width="12" stroke-miterlimit="10"/>
<path d="M11.27 111.19C15.64 110.29 21.25 108.68 27.36 105.69C32.38 103.23 36.41 100.49 39.49 98.0601" stroke="#1D1D1B" stroke-width="8" stroke-miterlimit="10"/>
<path d="M12.4599 94.5C15.0599 92.95 17.7399 91.66 20.5599 90.67C23.6199 89.6 26.8599 89.12 29.8199 87.77C31.0499 87.21 31.3499 85.43 30.7199 84.35C29.9799 83.09 28.5299 82.89 27.2999 83.45C25.9899 84.05 24.4399 84.33 23.0099 84.7C21.5799 85.07 20.0699 85.54 18.6399 86.06C15.6199 87.16 12.6999 88.54 9.93994 90.18C8.77994 90.87 8.35994 92.43 9.03994 93.6C9.71994 94.77 11.2999 95.19 12.4599 94.5Z" fill="#942206"/>
<path d="M116.96 67.74C119.28 68.87 125.59 72.32 129.68 79.87C134.56 88.88 132.92 97.55 132.42 99.83" stroke="#942206" stroke-width="12" stroke-miterlimit="10"/>
<path d="M106.2 133.09C108.12 139.54 110.38 149.41 110.31 161.46C110.19 181.86 103.5 191.62 100.53 212.33C99.17 221.77 98.3 235.52 101.12 252.83" stroke="#942206" stroke-width="12" stroke-miterlimit="10"/>
<path d="M11.27 111.19C15.64 110.29 21.25 108.68 27.36 105.69C32.38 103.23 36.41 100.49 39.49 98.0601" stroke="#942206" stroke-width="10" stroke-miterlimit="10"/>
<path d="M75 83.5993C75.08 83.0693 75.67 79.5393 78.65 77.8593C81.83 76.0693 86.47 77.0993 89.35 80.7293" stroke="#3C6679" stroke-width="12" stroke-miterlimit="10" stroke-linecap="round"/>
</svg>
