<svg width="65" height="65" viewBox="0 0 65 65" fill="none" xmlns="http://www.w3.org/2000/svg">
<g clip-path="url(#clip0_113_268)">
<path d="M60.1885 0H4.79883C2.14551 0 0 2.09473 0 4.68457V60.3027C0 62.8926 2.14551 65 4.79883 65H60.1885C62.8418 65 65 62.8926 65 60.3154V4.68457C65 2.09473 62.8418 0 60.1885 0ZM19.2842 55.3896H9.63574V24.3623H19.2842V55.3896ZM14.46 20.1348C11.3623 20.1348 8.86133 17.6338 8.86133 14.5488C8.86133 11.4639 11.3623 8.96289 14.46 8.96289C17.5449 8.96289 20.0459 11.4639 20.0459 14.5488C20.0459 17.6211 17.5449 20.1348 14.46 20.1348ZM55.3896 55.3896H45.7539V40.3076C45.7539 36.7148 45.6904 32.0811 40.7393 32.0811C35.7246 32.0811 34.9629 36.0039 34.9629 40.0537V55.3896H25.3398V24.3623H34.582V28.6025H34.709C35.9912 26.165 39.1397 23.5879 43.8242 23.5879C53.5869 23.5879 55.3896 30.0117 55.3896 38.3652V55.3896Z" fill="#FFEDE6"/>
</g>
<defs>
<clipPath id="clip0_113_268">
<rect width="65" height="65" fill="white"/>
</clipPath>
</defs>
</svg>
