<svg width="65" height="65" viewBox="0 0 65 65" fill="none" xmlns="http://www.w3.org/2000/svg">
<g clip-path="url(#clip0_113_98)">
<path d="M32.5 0.649902C14.56 0.649902 0 15.2099 0 33.1499C0 47.5149 9.295 59.6699 22.23 63.9599C23.855 64.2849 24.44 63.2449 24.44 62.3999C24.44 61.6199 24.44 59.0849 24.375 56.3549C15.34 58.3049 13.455 52.5199 13.455 52.5199C11.96 48.7499 9.815 47.7749 9.815 47.7749C6.89 45.7599 10.01 45.8249 10.01 45.8249C13.26 46.0849 15.015 49.2049 15.015 49.2049C17.94 54.1449 22.62 52.7149 24.505 51.9349C24.765 49.8549 25.61 48.4249 26.585 47.5799C19.37 46.7349 11.765 43.9399 11.765 31.5249C11.765 27.9499 13.065 25.0899 15.145 22.8149C14.82 21.9699 13.715 18.7199 15.47 14.2349C15.47 14.2349 18.2 13.3899 24.44 17.5499C27.04 16.8349 29.835 16.4449 32.565 16.4449C35.295 16.4449 38.09 16.8349 40.69 17.5499C46.865 13.3249 49.595 14.2349 49.595 14.2349C51.35 18.7199 50.245 22.0349 49.92 22.8149C52 25.0899 53.235 28.0149 53.235 31.5249C53.235 44.0049 45.63 46.7349 38.415 47.5799C39.585 48.6199 40.625 50.5699 40.625 53.6249C40.625 57.9799 40.56 61.4899 40.56 62.5299C40.56 63.3749 41.145 64.4149 42.77 64.0899C55.705 59.6699 65 47.5149 65 33.1499C65 15.2099 50.44 0.649902 32.5 0.649902Z" fill="#FFEDE6"/>
<path d="M12.155 46.93C12.09 47.06 11.83 47.125 11.57 47.06C11.31 46.93 11.18 46.735 11.31 46.54C11.375 46.345 11.635 46.345 11.895 46.41C12.09 46.54 12.285 46.8 12.155 46.93ZM13.78 48.36C13.65 48.49 13.325 48.425 13.13 48.23C12.935 48.035 12.87 47.71 13.065 47.58C13.195 47.45 13.52 47.515 13.715 47.71C13.91 47.905 13.91 48.23 13.78 48.36ZM14.885 50.18C14.69 50.31 14.365 50.18 14.17 49.92C13.975 49.66 13.975 49.27 14.17 49.14C14.365 49.01 14.69 49.14 14.885 49.4C15.08 49.725 15.08 50.05 14.885 50.18ZM16.705 52.325C16.51 52.52 16.12 52.455 15.86 52.195C15.6 51.935 15.47 51.545 15.665 51.35C15.86 51.155 16.25 51.22 16.51 51.48C16.835 51.74 16.9 52.13 16.705 52.325ZM19.11 53.04C19.045 53.3 18.655 53.43 18.33 53.3C17.94 53.17 17.745 52.91 17.81 52.65C17.875 52.39 18.265 52.26 18.655 52.39C18.98 52.455 19.175 52.78 19.11 53.04ZM21.84 53.3C21.84 53.56 21.515 53.82 21.125 53.82C20.735 53.82 20.41 53.625 20.41 53.365C20.41 53.105 20.735 52.845 21.125 52.845C21.515 52.845 21.84 53.04 21.84 53.3ZM24.505 53.235C24.57 53.495 24.31 53.755 23.92 53.82C23.53 53.885 23.205 53.755 23.14 53.495C23.075 53.235 23.335 52.975 23.725 52.91C24.115 52.78 24.505 52.975 24.505 53.235Z" fill="#FFEDE6"/>
</g>
<defs>
<clipPath id="clip0_113_98">
<rect width="65" height="65" fill="white"/>
</clipPath>
</defs>
</svg>
