<svg width="50" height="50" viewBox="0 0 70 70" fill="none" xmlns="http://www.w3.org/2000/svg">
<path d="M65.94 0L60.34 63L35 70L9.80001 63L4.20001 0H65.94Z" fill="#942206"/>
<path d="M55.51 59.01L60.34 5.17999H35.14V64.68L55.51 59.01Z" fill="#3C6679"/>
<path d="M17.08 28.49L17.78 36.19H35.07V28.49H17.08Z" fill="#FFEDE6" fill-opacity="0.9"/>
<path d="M35.07 12.88H15.68L16.38 20.58H35.07V12.88Z" fill="#FFEDE6" fill-opacity="0.9"/>
<path d="M35.07 56.63V48.58L26.46 46.27L25.9 40.11H21.7H18.13L19.18 52.22L35.07 56.63Z" fill="#FFEDE6" fill-opacity="0.9"/>
<path d="M44.52 36.26L43.61 46.27L35 48.58V56.63L50.82 52.22L50.96 50.89L52.78 30.52L52.99 28.42L54.39 12.81H35V20.51H45.92L45.22 28.42H35V36.12H44.52V36.26Z" fill="#FFEDE6"/>
</svg>
