<svg width="100" height="100" viewBox="0 0 100 100" fill="none" xmlns="http://www.w3.org/2000/svg">
<g id="ps">
<path id="Vector" d="M17.7 1H82.3C92.1 1 100 8.9 100 18.7V80.8C100 90.6 92.1 98.5 82.3 98.5H17.7C7.9 98.5 0 90.6 0 80.8V18.7C0 8.9 7.9 1 17.7 1Z" fill="#942206"/>
<path id="Vector_2" d="M22.5 69.4V26.5C22.5 26.2 22.6 26 22.9 26C23.6 26 24.3 26 25.2 26C26.2 26 27.2 26 28.4 25.9C29.5 25.9 30.7 25.9 32 25.8C33.3 25.8 34.5 25.8 35.8 25.8C39.2 25.8 42 26.2 44.4 27.1C46.5 27.8 48.4 29 50 30.5C51.3 31.8 52.4 33.5 53 35.3C53.6 37.1 54 38.8 54 40.7C54 44.3 53.2 47.2 51.5 49.6C49.8 51.9 47.5 53.7 44.8 54.7C42 55.7 38.8 56.1 35.4 56.1C34.4 56.1 33.7 56.1 33.3 56.1C32.9 56.1 32.3 56.1 31.5 56.1V69.5C31.5 69.8 31.3 70 31 70.1C31 70.1 30.9 70.1 30.8 70.1H23C22.7 69.9 22.5 69.8 22.5 69.4ZM31.6 34.1V48.1C32.2 48.1 32.7 48.2 33.2 48.2H35.4C37 48.2 38.6 48 40.2 47.4C41.5 47 42.7 46.2 43.6 45.2C44.5 44.2 44.9 42.7 44.9 40.9C44.9 39.6 44.6 38.3 43.9 37.2C43.2 36.1 42.2 35.3 41 34.8C39.5 34.2 37.8 33.9 36.1 34C35 34 34.1 34 33.3 34C32.5 34 31.9 34 31.6 34.1Z" fill="#3C6679"/>
<path id="Vector_3" d="M80 45.5C78.8 44.8 77.4 44.4 76 44.1C74.5 43.8 72.9 43.6 71.3 43.6C70.5 43.6 69.6 43.7 68.8 43.9C68.3 44 67.8 44.3 67.5 44.7C67.3 45 67.2 45.5 67.2 45.8C67.2 46.2 67.4 46.6 67.6 46.9C68 47.4 68.5 47.7 69 48C70 48.5 71 49 72 49.4C74.2 50.2 76.4 51.2 78.4 52.4C79.8 53.3 80.9 54.4 81.7 55.9C82.4 57.2 82.7 58.7 82.7 60.2C82.7 62.2 82.2 64.1 81.1 65.7C79.9 67.4 78.3 68.7 76.4 69.4C74.4 70.3 71.9 70.7 68.9 70.7C67 70.7 65.1 70.5 63.2 70.2C61.7 70 60.3 69.5 59 68.9C58.7 68.7 58.5 68.4 58.5 68.1V60.8C58.5 60.7 58.5 60.5 58.7 60.4C58.8 60.3 58.9 60.4 59.1 60.4C60.7 61.4 62.4 62 64.3 62.4C65.9 62.8 67.5 63 69.2 63C70.8 63 71.9 62.8 72.7 62.4C73.4 62.1 73.8 61.4 73.8 60.6C73.8 60 73.5 59.5 72.8 58.9C72.1 58.4 70.8 57.7 68.7 56.9C66.6 56.1 64.6 55.1 62.8 53.9C61.5 53 60.4 51.8 59.6 50.4C58.9 49.1 58.6 47.6 58.6 46.1C58.6 44.3 59.1 42.6 60 41.1C61 39.4 62.6 38.1 64.4 37.3C66.4 36.3 68.8 35.8 71.8 35.8C73.5 35.8 75.3 35.9 77 36.2C78.2 36.4 79.5 36.7 80.6 37.2C80.8 37.2 80.9 37.4 81 37.6C81 37.8 81.1 37.9 81.1 38.1V44.9C81.1 45.1 81 45.2 80.9 45.3C80.4 45.6 80.2 45.6 80 45.5Z" fill="#3C6679"/>
</g>
</svg>
