<svg width="100" height="100" viewBox="0 0 100 100" fill="none" xmlns="http://www.w3.org/2000/svg">
<g id="less">
<path id="Vector" d="M94.0196 63.8C94.0196 68.5 90.2941 72.4 85.5882 72.4H15.098C10.4902 72.4 6.66663 68.6 6.66663 63.8V36.6C6.66663 31.9 10.3921 28 15.098 28H85.5882C90.196 28 94.0196 31.8 94.0196 36.6V63.8Z" fill="url(#paint0_linear_2116_4531)"/>
<path id="Vector_2" d="M79.2156 49.6C82.9411 50.9 84.7058 53.2 84.7058 56.4C84.7058 58.5 83.9215 60.2 82.4509 61.4C80.8823 62.6 78.7254 63.4 75.9803 63.4C73.1372 63.4 70.5882 62.6 68.1372 61.2C68.1372 60.5 68.3333 59.7 68.7254 58.8C69.1176 57.9 69.5098 57.2 69.9019 56.7C72.1568 57.9 74.0196 58.5 75.6862 58.5C76.4705 58.5 77.0588 58.4 77.4509 58.1C77.8431 57.8 78.0392 57.5 78.0392 57C78.0392 56.2 77.3529 55.5 76.1764 55.1L73.9215 54.2C70.4901 52.9 68.7254 50.8 68.7254 47.9C68.7254 45.8 69.4117 44.1 70.8823 42.8C72.3529 41.6 74.3137 40.5 76.7647 40.5C77.9411 40.5 79.3137 40.7 80.7843 41C82.2549 41.4 83.4313 42.2 84.4117 42.7C84.5098 43.5 84.3137 44.3 83.9215 45.3C83.5294 46.2 83.1372 46.9 82.549 47.3C80.196 46.2 78.3333 45.7 76.7647 45.7C76.1764 45.7 75.7843 45.8 75.4901 46.1C75.196 46.4 75.098 46.7 75.098 47.1C75.098 47.8 75.5882 48.3 76.6666 48.7L79.2156 49.6Z" fill="#FFEDE6"/>
<path id="Vector_3" d="M60.8824 49.6C64.6079 50.9 66.3726 53.2 66.3726 56.4C66.3726 58.5 65.5883 60.2 64.1177 61.4C62.5491 62.6 60.3922 63.4 57.5491 63.4C54.7059 63.4 52.1569 62.6 49.7059 61.2C49.7059 60.5 49.902 59.7 50.2942 58.8C50.6863 57.9 51.0785 57.2 51.4706 56.7C53.7255 57.9 55.5883 58.5 57.255 58.5C58.0393 58.5 58.6275 58.4 59.0197 58.1C59.4118 57.8 59.6079 57.5 59.6079 57C59.6079 56.2 58.9216 55.5 57.7451 55.1L55.4902 54.2C52.0589 52.9 50.2942 50.8 50.2942 47.9C50.2942 45.8 50.9804 44.1 52.451 42.8C53.9216 41.6 55.8824 40.5 58.3334 40.5C59.5099 40.5 60.8824 40.7 62.353 41C63.8236 41.4 65.0001 42.2 65.9804 42.7C66.0785 43.5 65.8824 44.3 65.4902 45.3C65.0981 46.2 64.7059 46.9 64.1177 47.3C61.7648 46.2 59.902 45.7 58.3334 45.7C57.7451 45.7 57.353 45.8 57.0589 46.1C56.7648 46.4 56.6667 46.7 56.6667 47.1C56.6667 47.8 57.1569 48.3 58.2353 48.7L60.8824 49.6Z" fill="#FFEDE6"/>
<path id="Vector_4" d="M47.451 49.9C47.451 48.6 47.2549 47.4 46.8627 46.3C46.4706 45.2 45.8823 44.3 45.098 43.5C44.3137 42.7 43.4314 42.1 42.3529 41.7C41.2745 41.3 40.098 40.6 38.7255 40.6C37.1568 40.6 35.7843 41.3 34.6078 41.9C33.4314 42.5 32.451 43.2 31.6666 44.2C30.8823 45.2 30.2941 46.3 30 47.7C29.7059 49.1 29.4117 50.5 29.4117 52C29.4117 53.6 29.6078 55.1 29.9019 56.5C30.1961 57.9 30.6863 59.1 31.4706 60.1C32.1568 61.1 33.1372 61.9 34.3137 62.4C35.4902 63 36.9608 63.4 38.7255 63.4C41.9608 63.4 44.6078 62.5 46.8627 60.9C46.6666 59.3 46.0784 58 45.1961 57C44.0196 57.4 43.0392 57.7 42.1568 57.9C41.2745 58.1 40.4902 58.2 39.9019 58.2C38.5294 58.2 37.647 57.9 37.0588 57.2C36.4706 56.5 36.1764 55.7 36.0784 54.4H46.8627C47.2549 53.2 47.451 51.6 47.451 49.9ZM36.0784 50.2C36.1764 48.8 36.3725 47.2 36.8627 46.6C37.2549 46 37.9412 45.7 38.8235 45.7C39.7059 45.7 40.3921 46 40.8823 46.7C41.3725 47.4 41.5686 48.7 41.5686 49.8V50.3H36.0784V50.2Z" fill="#FFEDE6"/>
<path id="Vector_5" d="M96.1765 53C95 54 94.3137 55.6 94.3137 57.5V64.8C94.3137 67.2 93.6275 69.1 91.9608 70.4C90.2941 71.7 88.3334 72.3 86.1765 72.4H84.902V68.7C86.0784 68.4 86.5686 68 86.9608 67.5C87.7451 66.7 88.4314 65.5 88.4314 63.8V57.9C88.4314 55.9 88.6275 54.3 89.3137 53.2C90 52.1 91.4706 51.1 93.5294 50.2C91.2745 49.1 89.7059 47.7 88.9216 46C88.4314 45 88.4314 43.6 88.4314 41.8V36.4C88.4314 34.6 87.8432 33.4 87.1569 32.6C86.6667 32.1 86.1765 31.8 84.902 31.5V28C86.4706 28 87.2549 28 88.1373 28C89.5098 28 90.6863 28.8 91.7647 29.6C92.8432 30.5 93.6275 31.7 94.1177 33.2C94.4118 34.1 94.4118 34.9 94.4118 35.7V42C94.4118 44.2 95.0981 45.9 96.1765 46.9C96.7647 47.5 97.6471 48.1 99.1177 48.6V51.4C97.6471 51.8 96.8628 52.3 96.1765 53Z" fill="#FFEDE6"/>
<path id="Vector_6" d="M13.5294 28C13.0392 28 12.647 28 12.3529 28C10.9803 28 9.80388 28.8 8.72544 29.6C7.64701 30.5 6.66662 31.6 6.3725 33.2C6.17643 34.1 6.27446 34.9 6.27446 35.7V42C6.27446 44.2 5.49015 45.9 4.41172 46.9C3.82348 47.5 2.45093 48.1 0.980347 48.6V51.4C2.3529 51.8 3.62741 52.3 4.31368 52.9C5.49015 53.9 6.3725 55.5 6.3725 57.4V64.7C6.3725 67.1 6.96074 69 8.62741 70.3C10.2941 71.6 12.2549 72.2 14.4117 72.3H15.8823V68.6C14.7058 68.3 14.1176 67.9 13.6274 67.4C12.8431 66.6 12.3529 65.4 12.3529 63.7V57.8C12.3529 55.8 11.9607 54.2 11.2745 53.1C10.5882 52 9.1176 51 7.05878 50.1C9.31368 49 10.8823 47.6 11.6666 45.9C12.1568 44.9 12.3529 43.5 12.3529 41.7V36.3C12.3529 34.5 12.7451 33.3 13.4313 32.5C13.8235 32.1 14.5098 31.8 15.4902 31.5H16.9607C16.9607 30.2 16.9607 29.4 16.9607 27.9L13.5294 28Z" fill="#FFEDE6"/>
<path id="Vector_7" d="M27.3529 57.7H26.2745C25.098 57.7 24.6078 57 24.6078 55.7V31.6C24.6078 30.1 24.2157 29.1 23.6274 28.5C23.1372 28 22.1568 28 20.8823 28H18.3333H18.0392V31.6V56.9C18.0392 58.9 18.5294 60.4 19.3137 61.3C20.098 62.2 21.4706 62.7 23.3333 62.7C24.6078 62.7 26.0784 62.6 27.7451 62.3C27.8431 62 27.8431 61.4 27.8431 60.5C27.8431 59.6 27.7451 58.7 27.3529 57.7Z" fill="#FFEDE6"/>
</g>
<defs>
<linearGradient id="paint0_linear_2116_4531" x1="50.3585" y1="28.0244" x2="50.3585" y2="72.3596" gradientUnits="userSpaceOnUse">
<stop stop-color="#3C6679"/>
<stop offset="0.841346" stop-color="#942206"/>
</linearGradient>
</defs>
</svg>
