<svg width="50" height="50" viewBox="0 0 50 50" fill="none" xmlns="http://www.w3.org/2000/svg">
<g id="Frame" clip-path="url(#clip0_2115_4485)">
<path id="Vector" d="M49.5 20.55C49.35 20.45 48.1 19.5 45.45 19.5C44.75 19.5 44.05 19.55 43.35 19.7C42.85 16.15 39.9 14.45 39.75 14.35L39.05 13.95L38.6 14.65C38 15.55 37.6 16.55 37.35 17.65C36.85 19.65 37.15 21.55 38.2 23.2C36.95 23.9 34.95 24.05 34.55 24.1H1.55C0.699996 24 -4.16767e-06 24.7 -4.16767e-06 25.55C-0.0500042 28.4 0.449996 31.3 1.45 34C2.6 37 4.25 39.15 6.45 40.5C8.9 42 12.9 42.85 17.45 42.85C19.5 42.85 21.55 42.65 23.55 42.3C26.35 41.8 29.05 40.8 31.5 39.4C33.55 38.2 35.4 36.7 36.95 34.95C39.55 32 41.1 28.7 42.25 25.8H42.7C45.55 25.8 47.3 24.65 48.3 23.7C48.95 23.1 49.45 22.35 49.75 21.5L49.95 20.9L49.5 20.55Z" fill="#FFEDE6"/>
<path id="Vector_2" d="M4.59995 23H8.99995C9.19995 23 9.39995 22.85 9.39995 22.6V18.65C9.39995 18.45 9.24995 18.25 8.99995 18.25H4.59995C4.39995 18.25 4.19995 18.4 4.19995 18.65V22.6C4.24995 22.85 4.39995 23 4.59995 23Z" fill="#FFEDE6"/>
<path id="Vector_3" d="M10.7 23H15.1C15.3 23 15.5 22.85 15.5 22.6V18.65C15.5 18.45 15.35 18.25 15.1 18.25H10.7C10.5 18.25 10.3 18.4 10.3 18.65V22.6C10.3 22.85 10.5 23 10.7 23Z" fill="#FFEDE6"/>
<path id="Vector_4" d="M16.85 23H21.25C21.45 23 21.65 22.85 21.65 22.6V18.65C21.65 18.45 21.5 18.25 21.25 18.25H16.85C16.65 18.25 16.45 18.4 16.45 18.65V22.6C16.5 22.85 16.65 23 16.85 23Z" fill="#FFEDE6"/>
<path id="Vector_5" d="M23 23H27.4C27.6 23 27.8 22.85 27.8 22.6V18.65C27.8 18.45 27.65 18.25 27.4 18.25H23C22.8 18.25 22.6 18.4 22.6 18.65V22.6C22.6 22.85 22.75 23 23 23Z" fill="#FFEDE6"/>
<path id="Vector_6" d="M10.7 17.35H15.1C15.3 17.35 15.5 17.2 15.5 16.95V13C15.5 12.8 15.35 12.6 15.1 12.6H10.7C10.5 12.6 10.3 12.75 10.3 13V16.95C10.3 17.2 10.5 17.35 10.7 17.35Z" fill="#FFEDE6"/>
<path id="Vector_7" d="M16.85 17.35H21.25C21.45 17.35 21.65 17.2 21.65 16.95V13C21.65 12.8 21.5 12.6 21.25 12.6H16.85C16.65 12.6 16.45 12.75 16.45 13V16.95C16.5 17.2 16.65 17.35 16.85 17.35Z" fill="#FFEDE6"/>
<path id="Vector_8" d="M23 17.35H27.4C27.6 17.35 27.8 17.2 27.8 16.95V13C27.8 12.8 27.65 12.6 27.4 12.6H23C22.8 12.6 22.6 12.75 22.6 13V16.95C22.6 17.2 22.75 17.35 23 17.35Z" fill="#FFEDE6"/>
<path id="Vector_9" d="M23 11.7H27.4C27.6 11.7 27.8 11.55 27.8 11.3V7.35C27.8 7.15 27.65 6.95 27.4 6.95H23C22.8 6.95 22.6 7.1 22.6 7.35V11.3C22.6 11.55 22.75 11.7 23 11.7Z" fill="#FFEDE6"/>
<path id="Vector_10" d="M29.15 23H33.55C33.75 23 33.95 22.85 33.95 22.6V18.65C33.95 18.45 33.8 18.25 33.55 18.25H29.15C28.95 18.25 28.75 18.4 28.75 18.65V22.6C28.75 22.85 28.9 23 29.15 23Z" fill="#FFEDE6"/>
</g>
<defs>
<clipPath id="clip0_2115_4485">
<rect width="50" height="50" fill="white"/>
</clipPath>
</defs>
</svg>
