<svg width="100" height="100" viewBox="0 0 100 100" fill="none" xmlns="http://www.w3.org/2000/svg">
<g id="webpack">
<path id="Vector" d="M50.2 0L6 25V75L50.2 100L94.4 75V25L50.2 0Z" fill="#FFEDE6"/>
<path id="Vector_2" d="M13.9 73.3L48.7 93V77.6L27 65.7L13.9 73.3ZM11.5 71.1V29.9L24.3 37.3V63.8L11.5 71.1ZM86.6 73.3L51.8 93V77.6L73.5 65.7L86.6 73.3ZM89 71.1V29.9L76.2 37.3V63.8L89 71.1ZM87.5 27.2L51.8 7V21.8L74.7 34.4L74.9 34.5L87.5 27.2ZM13 27.2L48.7 7V21.8L25.8 34.5L25.6 34.6L13 27.2Z" fill="#B1B1B1"/>
<path id="Vector_3" d="M51.8 74.1L73.2 62.3V39L51.8 51.4V74.1ZM48.7001 74.1L27.3 62.4V39L48.7001 51.4V74.1ZM71.8001 36.3L50.3 24.5L28.8 36.3L50.3 48.7L71.8001 36.3Z" fill="#942206"/>
</g>
</svg>
