<svg width="50" height="50" viewBox="0 0 50 50" fill="none" xmlns="http://www.w3.org/2000/svg">
<g id="Frame" clip-path="url(#clip0_2115_4515)">
<path id="Vector" d="M46.6 13.8C49.3 19.05 49.95 25.15 48.5 30.85C47.05 36.55 43.55 41.6 38.7 44.95C33.85 48.3 27.9 49.75 22.05 49.05C16.2 48.35 10.75 45.55 6.8 41.15C2.8 36.8 0.599996 31.1 0.499996 25.2C0.399996 19.3 2.5 13.55 6.35 9.05C10.2 4.55 15.5 1.6 21.35 0.75C27.2 -0.0999996 33.15 1.2 38.1 4.45" stroke="#808080" stroke-width="1.1309" stroke-dasharray="4.25 4.25"/>
<path id="Vector_2" d="M24.85 43.7C35.25 43.7 43.7 35.25 43.7 24.85C43.7 14.45 35.3 6 24.85 6C14.4 6 6 14.45 6 24.85C6 35.25 14.45 43.7 24.85 43.7Z" fill="#942206"/>
<path id="Vector_3" d="M32.7 22.6C35.75 22.6 38.2 20.15 38.2 17.1C38.2 14.05 35.75 11.6 32.7 11.6C29.65 11.6 27.2 14.05 27.2 17.1C27.15 20.1 29.65 22.6 32.7 22.6Z" fill="#FFEDE6"/>
<path id="Vector_4" d="M43.7 11.55C46.75 11.55 49.2 9.1 49.2 6.05C49.2 3 46.75 0.550003 43.7 0.550003C40.65 0.550003 38.2 3 38.2 6.05C38.2 9.05 40.65 11.55 43.7 11.55Z" fill="#942206"/>
<path id="Vector_5" d="M19.75 34.3V32.9H13.65V21.9H12.05V34.25H19.75V34.3Z" fill="#FFEDE6"/>
<path id="Vector_6" d="M28.25 34.3V25.4H26.85V30.3C26.85 32.1 25.9 33.3 24.4 33.3C23.3 33.3 22.55 32.6 22.55 31.55V25.4H21.15V32.1C21.15 33.6 22.25 34.55 24 34.55C25.3 34.55 26.15 34.1 26.95 32.9V34.25H28.25V34.3Z" fill="#FFEDE6"/>
<path id="Vector_7" d="M38.6 34.25V33.2C38.45 33.25 38.4 33.25 38.3 33.25C37.8 33.25 37.55 33 37.55 32.55V27.6C37.55 26 36.4 25.15 34.2 25.15C32.05 25.15 30.7 26 30.65 28.05H32.05C32.15 26.95 32.8 26.45 34.15 26.45C35.4 26.45 36.15 26.95 36.15 27.75V28.1C36.15 28.7 35.8 28.95 34.65 29.1C32.65 29.35 32.35 29.4 31.8 29.65C30.75 30.05 30.25 30.85 30.25 31.95C30.25 33.55 31.35 34.5 33.15 34.5C34.3 34.5 35.4 34.05 36.15 33.2C36.3 33.9 36.9 34.35 37.6 34.35C37.9 34.4 38.1 34.4 38.6 34.25ZM36.1 31.2C36.1 32.45 34.8 33.3 33.45 33.3C32.35 33.3 31.7 32.9 31.7 31.95C31.7 31 32.35 30.6 33.85 30.4C35.35 30.2 35.65 30.15 36.1 29.9V31.2Z" fill="#FFEDE6"/>
</g>
<defs>
<clipPath id="clip0_2115_4515">
<rect width="50" height="50" fill="white"/>
</clipPath>
</defs>
</svg>
