<svg width="50" height="50" viewBox="0 0 70 70" fill="none" xmlns="http://www.w3.org/2000/svg">
<path fill-rule="evenodd" clip-rule="evenodd" d="M14.56 7C10.57 7 7.63 10.5 7.77 14.28C7.91 17.92 7.7 22.61 6.51 26.46C5.32 30.31 3.29 32.76 0 33.11V36.68C3.29 36.96 5.32 39.41 6.51 43.33C7.7 47.11 7.84 51.8 7.7 55.51C7.56 59.29 10.5 62.79 14.49 62.79H55.44C59.43 62.79 62.37 59.29 62.23 55.51C62.16 51.8 62.3 47.11 63.49 43.26C64.68 39.41 66.71 36.96 70 36.61V33.04C66.71 32.76 64.68 30.31 63.49 26.39C62.3 22.68 62.16 17.92 62.3 14.28C62.44 10.5 59.5 7 55.51 7H14.56ZM47.46 41.3C47.46 46.55 43.54 49.7 37.1 49.7H26.11C25.83 49.7 25.48 49.56 25.27 49.35C25.06 49.14 24.92 48.86 24.92 48.51V21.21C24.92 20.93 25.06 20.58 25.27 20.37C25.48 20.16 25.76 20.02 26.11 20.02H37.03C42.42 20.02 45.92 22.96 45.92 27.44C45.92 30.59 43.54 33.39 40.53 33.88V34.02C44.66 34.51 47.46 37.38 47.46 41.3ZM35.91 23.8H29.61V32.69H34.86C38.92 32.69 41.23 31.08 41.23 28.14C41.23 25.34 39.34 23.8 35.91 23.8ZM29.61 36.19V45.92H36.12C40.39 45.92 42.63 44.24 42.63 41.02C42.63 37.8 40.32 36.19 35.84 36.19H29.61Z" fill="#FFEDE6"/>
</svg>
