<svg width="50" height="50" viewBox="0 0 80 80" fill="none" xmlns="http://www.w3.org/2000/svg">
<g clip-path="url(#clip0_108_389)">
<path d="M39.8416 46.5743C43.7228 46.5743 46.8119 43.4852 46.8119 39.604C46.8119 35.7228 43.7228 32.6337 39.8416 32.6337C35.9604 32.6337 32.8713 35.7228 32.8713 39.604C32.8713 43.4852 35.9604 46.5743 39.8416 46.5743Z" fill="#FFEDE6"/>
<path d="M39.8416 53.9406C60.5149 53.9406 77.3069 47.5248 77.3069 39.604C77.3069 31.6832 60.5149 25.2673 39.8416 25.2673C19.1683 25.2673 2.37625 31.6832 2.37625 39.604C2.37625 47.5248 19.1683 53.9406 39.8416 53.9406Z" stroke="#FFEDE6" stroke-width="5"/>
<path d="M27.4852 46.7327C37.7822 64.7129 51.7228 76.0396 58.6139 72.0792C65.4258 68.1188 62.6535 50.3762 52.2772 32.4752C41.901 14.495 27.9604 3.16831 21.1485 7.12871C14.2574 11.0891 17.1089 28.8317 27.4852 46.7327Z" stroke="#FFEDE6" stroke-width="5"/>
<path d="M27.4851 32.4752C17.1089 50.3762 14.3366 68.1188 21.1485 72.0792C27.9604 76.0396 41.901 64.7129 52.198 46.7327C62.5742 28.8317 65.4257 11.0891 58.6138 7.12871C51.7228 3.16831 37.7822 14.495 27.4851 32.4752Z" stroke="#FFEDE6" stroke-width="5"/>
</g>
<defs>
<clipPath id="clip0_108_389">
<rect width="80" height="79.2079" fill="white"/>
</clipPath>
</defs>
</svg>
